<svg version="1.1" viewBox="12.895152198421647 49.2 240.20969560315672 51.300000000000004" xmlns:xlink="http://www.w3.org/1999/xlink" xmlns="http://www.w3.org/2000/svg" style="max-height: 500px" width="240.20969560315672" height="51.300000000000004">
<g id="surface1">
<path d="M 27.746094 93.054688 L 18.53125 69.046875 C 22.878906 69.046875 26.714844 71.441406 27.988281 74.949219 L 29.589844 79.351562 C 29.910156 80.335938 30.21875 81.324219 30.511719 82.316406 C 30.816406 83.351562 31.085938 84.4375 31.316406 85.570312 C 31.496094 84.835938 31.683594 84.105469 31.878906 83.375 C 32.050781 82.738281 32.25 82.105469 32.480469 81.484375 C 32.707031 80.859375 32.972656 80.148438 33.273438 79.351562 L 34.8125 75.308594 C 36.230469 71.578125 40.34375 69.046875 44.984375 69.046875 L 45.890625 69.046875 C 47.699219 69.046875 49.300781 70.042969 49.839844 71.5 L 52.734375 79.351562 C 52.863281 79.730469 52.988281 80.109375 53.109375 80.492188 C 53.285156 81.027344 53.464844 81.601562 53.65625 82.21875 C 53.847656 82.824219 54.027344 83.429688 54.207031 84.039062 C 54.378906 84.640625 54.503906 85.148438 54.578125 85.570312 C 54.734375 84.957031 54.925781 84.257812 55.15625 83.480469 C 55.378906 82.722656 55.621094 81.96875 55.875 81.222656 C 56.125 80.492188 56.328125 79.867188 56.480469 79.351562 L 59.917969 71.792969 C 61.523438 68.269531 65.535156 65.941406 70.011719 65.941406 L 60.160156 87.929688 C 58.777344 91.015625 55.277344 93.054688 51.367188 93.054688 L 51.296875 93.054688 C 51.296875 93.054688 47.238281 69.402344 41.726562 74.464844 C 41.273438 74.878906 40.964844 75.386719 40.777344 75.925781 L 36.695312 87.546875 C 35.445312 90.828125 31.828125 93.054688 27.746094 93.054688 Z M 114.625 93.054688 L 108.710938 93.054688 L 108.710938 69.046875 L 114.191406 69.046875 C 114.367188 70.179688 115.679688 70.761719 116.601562 70.089844 C 116.984375 69.8125 117.402344 69.5625 117.851562 69.339844 C 119.222656 68.660156 129.234375 68.316406 130.851562 68.316406 C 133.859375 68.316406 136.128906 69.210938 137.664062 70.992188 C 139.199219 72.773438 139.964844 75.203125 139.964844 78.28125 L 139.964844 93.054688 L 134.050781 93.054688 L 134.050781 79.691406 C 134.050781 77.683594 133.597656 76.183594 132.695312 75.195312 C 131.789062 74.207031 122.042969 74.488281 120.492188 74.488281 C 118.652344 74.488281 117.210938 75.070312 116.179688 76.238281 C 115.144531 77.40625 114.625 78.183594 114.625 80.128906 Z M 206.601562 84.964844 C 206.601562 86.285156 205.53125 87.359375 204.214844 87.359375 L 203.9375 87.359375 L 203.667969 87.402344 C 201.308594 87.753906 198.925781 87.933594 196.539062 87.933594 C 195.523438 87.933594 194.496094 87.902344 193.480469 87.835938 C 192.121094 87.75 190.765625 87.605469 189.417969 87.402344 L 189.140625 87.359375 L 188.863281 87.359375 C 188.617188 87.359375 188.375 87.320312 188.148438 87.25 C 187.148438 86.933594 186.472656 86.015625 186.472656 84.964844 L 186.472656 77.132812 C 186.472656 76.085938 187.148438 75.15625 188.148438 74.84375 C 188.375 74.773438 188.617188 74.738281 188.863281 74.738281 L 189.105469 74.738281 L 190.1875 74.589844 C 191.28125 74.445312 192.382812 74.335938 193.484375 74.265625 C 194.503906 74.199219 195.523438 74.167969 196.539062 74.167969 C 198.660156 74.167969 200.796875 74.308594 202.890625 74.589844 L 203.96875 74.738281 L 204.214844 74.738281 C 205.53125 74.738281 206.601562 75.8125 206.601562 77.132812 Z M 204.367188 68.9375 L 203.660156 68.839844 C 198.933594 68.207031 194.148438 68.207031 189.421875 68.839844 L 188.710938 68.9375 C 188.363281 68.941406 188.019531 68.972656 187.683594 69.019531 C 185.289062 69.367188 183.230469 70.757812 181.980469 72.714844 C 181.164062 73.992188 180.6875 75.503906 180.6875 77.132812 L 180.6875 84.964844 C 180.683594 86.53125 181.136719 88.066406 181.984375 89.386719 C 183.234375 91.335938 185.292969 92.726562 187.683594 93.070312 C 188.011719 93.121094 188.351562 93.148438 188.691406 93.15625 C 191.292969 93.546875 193.917969 93.734375 196.539062 93.734375 C 199.15625 93.734375 201.777344 93.546875 204.382812 93.15625 C 208.8125 93.066406 212.390625 89.425781 212.390625 84.964844 L 212.390625 77.132812 C 212.390625 72.664062 208.804688 69.019531 204.367188 68.9375 M 96.957031 84.964844 C 96.957031 86.285156 95.882812 87.359375 94.566406 87.359375 L 94.292969 87.359375 L 94.019531 87.402344 C 91.660156 87.753906 89.277344 87.933594 86.894531 87.933594 C 85.875 87.933594 84.847656 87.902344 83.835938 87.835938 C 82.472656 87.75 81.117188 87.605469 79.769531 87.402344 L 79.496094 87.359375 L 79.214844 87.359375 C 78.96875 87.359375 78.726562 87.320312 78.5 87.25 C 77.5 86.933594 76.828125 86.015625 76.828125 84.964844 L 76.828125 77.132812 C 76.824219 76.085938 77.503906 75.15625 78.5 74.84375 C 78.726562 74.773438 78.96875 74.738281 79.214844 74.738281 L 79.460938 74.738281 L 80.539062 74.589844 C 81.636719 74.445312 82.734375 74.335938 83.839844 74.265625 C 84.855469 74.199219 85.875 74.167969 86.894531 74.167969 C 89.011719 74.167969 91.148438 74.308594 93.242188 74.589844 L 94.324219 74.738281 L 94.566406 74.738281 C 95.882812 74.738281 96.957031 75.8125 96.957031 77.132812 Z M 94.71875 68.9375 L 94.011719 68.839844 C 89.289062 68.207031 84.5 68.207031 79.773438 68.839844 L 79.066406 68.9375 C 78.714844 68.941406 78.371094 68.972656 78.035156 69.019531 C 75.640625 69.367188 73.582031 70.757812 72.332031 72.714844 C 71.515625 73.992188 71.039062 75.503906 71.039062 77.132812 L 71.039062 84.964844 C 71.039062 86.53125 71.488281 88.066406 72.335938 89.386719 C 73.585938 91.335938 75.644531 92.726562 78.035156 93.070312 C 78.363281 93.121094 78.703125 93.148438 79.046875 93.15625 C 81.648438 93.546875 84.273438 93.734375 86.894531 93.734375 C 89.511719 93.734375 92.132812 93.546875 94.738281 93.15625 C 99.167969 93.066406 102.742188 89.425781 102.742188 84.964844 L 102.742188 77.132812 C 102.742188 72.664062 99.160156 69.019531 94.71875 68.9375 M 241.683594 74.738281 C 241.683594 76.054688 240.609375 77.132812 239.292969 77.132812 L 239.019531 77.132812 L 238.746094 77.175781 C 236.386719 77.527344 234.003906 77.707031 231.621094 77.707031 C 230.601562 77.707031 229.574219 77.675781 228.5625 77.609375 C 227.199219 77.523438 225.84375 77.378906 224.496094 77.175781 L 224.222656 77.132812 L 223.941406 77.132812 C 223.695312 77.132812 223.453125 77.09375 223.226562 77.023438 C 222.226562 76.703125 221.554688 75.789062 221.554688 74.738281 L 221.554688 66.902344 C 221.550781 65.855469 222.230469 64.929688 223.226562 64.617188 C 223.453125 64.542969 223.695312 64.507812 223.941406 64.507812 L 224.1875 64.507812 L 225.265625 64.363281 C 226.363281 64.21875 227.460938 64.109375 228.566406 64.039062 C 229.582031 63.972656 230.601562 63.9375 231.621094 63.9375 C 233.738281 63.9375 235.875 64.082031 237.96875 64.363281 L 239.050781 64.507812 L 239.292969 64.507812 C 240.609375 64.507812 241.683594 65.585938 241.683594 66.902344 Z M 239.445312 58.710938 L 238.738281 58.613281 C 234.015625 57.980469 229.226562 57.980469 224.5 58.613281 L 223.792969 58.710938 C 223.441406 58.714844 223.097656 58.746094 222.761719 58.792969 C 220.367188 59.140625 218.308594 60.53125 217.058594 62.488281 C 216.242188 63.765625 215.765625 65.277344 215.765625 66.90625 L 215.765625 74.738281 C 215.765625 76.304688 216.214844 77.839844 217.0625 79.15625 C 218.3125 81.109375 220.371094 82.5 222.761719 82.84375 C 223.089844 82.894531 223.429688 82.921875 223.773438 82.929688 C 226.375 83.320312 229 83.507812 231.621094 83.507812 C 234.238281 83.507812 236.859375 83.316406 239.464844 82.929688 C 243.894531 82.839844 247.46875 79.199219 247.46875 74.738281 L 247.46875 66.902344 C 247.46875 62.4375 243.886719 58.792969 239.445312 58.710938 M 167.320312 86.679688 L 167.027344 86.679688 L 166.757812 86.722656 C 164.941406 86.992188 163.097656 87.164062 161.261719 87.222656 C 160.714844 87.246094 160.171875 87.253906 159.628906 87.253906 C 158.609375 87.253906 157.585938 87.222656 156.570312 87.15625 C 155.210938 87.070312 153.851562 86.925781 152.503906 86.722656 L 152.328125 86.695312 L 152.230469 86.679688 L 151.949219 86.679688 C 151.703125 86.679688 151.464844 86.640625 151.234375 86.570312 C 150.234375 86.25 149.5625 85.335938 149.5625 84.285156 L 149.5625 76.449219 C 149.558594 75.402344 150.238281 74.476562 151.234375 74.164062 C 151.464844 74.089844 151.703125 74.054688 151.949219 74.054688 L 152.195312 74.054688 L 152.4375 74.019531 L 153.273438 73.910156 C 154.371094 73.765625 155.472656 73.65625 156.574219 73.585938 C 157.589844 73.519531 158.609375 73.484375 159.628906 73.484375 C 160.070312 73.484375 160.511719 73.492188 160.953125 73.503906 C 162.632812 73.550781 164.3125 73.6875 165.976562 73.910156 L 167.058594 74.054688 L 167.300781 74.054688 C 167.355469 74.054688 167.410156 74.054688 167.460938 74.0625 C 168.703125 74.144531 170.464844 75.851562 170.464844 80.320312 C 170.464844 84.625 168.628906 86.667969 167.320312 86.679688 M 170.515625 56.265625 L 170.515625 66.707031 C 170.515625 67.511719 170.105469 68.175781 169.511719 68.5625 C 168.902344 68.960938 168.097656 69.0625 167.355469 68.703125 L 167.3125 68.679688 C 166.695312 68.382812 166.050781 68.15625 165.386719 67.996094 C 164.140625 67.863281 162.894531 67.773438 161.644531 67.726562 C 158.59375 67.609375 155.535156 67.753906 152.507812 68.160156 L 151.800781 68.257812 C 151.453125 68.261719 151.105469 68.292969 150.769531 68.339844 C 148.378906 68.6875 146.316406 70.078125 145.066406 72.035156 C 144.25 73.3125 143.773438 74.824219 143.773438 76.449219 L 143.773438 84.285156 C 143.773438 85.851562 144.222656 87.386719 145.070312 88.703125 C 146.320312 90.65625 148.382812 92.046875 150.769531 92.390625 C 151.097656 92.441406 151.441406 92.46875 151.78125 92.476562 C 154.382812 92.863281 157.007812 93.054688 159.628906 93.054688 C 160.226562 93.054688 160.820312 93.042969 161.417969 93.023438 C 162.535156 92.988281 163.65625 92.917969 164.769531 92.808594 C 165.660156 92.613281 166.5 92.304688 167.289062 91.886719 C 167.652344 91.699219 168 91.484375 168.328125 91.246094 C 168.628906 91.027344 168.96875 90.929688 169.296875 90.929688 C 169.863281 90.929688 170.414062 91.226562 170.714844 91.726562 C 170.839844 91.929688 170.921875 92.164062 170.949219 92.421875 L 176.382812 92.421875 L 176.382812 56.265625 Z M 170.515625 56.265625" style="stroke:none;fill-rule:nonzero;fill:rgb(3.137255%,20%,33.72549%);fill-opacity:1;"/>
<path d="M 247.46875 93.734375 L 215.765625 93.734375 L 215.765625 88.53125 L 247.46875 88.53125 Z M 247.46875 93.734375" style="stroke:none;fill-rule:nonzero;fill:rgb(96.862745%,63.921569%,3.529412%);fill-opacity:1;"/>
</g>
</svg>